<?xml version="1.0" encoding="UTF-8" standalone="no"?>
<svg
   xmlns:dc="http://purl.org/dc/elements/1.1/"
   xmlns:cc="http://creativecommons.org/ns#"
   xmlns:rdf="http://www.w3.org/1999/02/22-rdf-syntax-ns#"
   xmlns:svg="http://www.w3.org/2000/svg"
   xmlns="http://www.w3.org/2000/svg"
   xmlns:sodipodi="http://sodipodi.sourceforge.net/DTD/sodipodi-0.dtd"
   xmlns:inkscape="http://www.inkscape.org/namespaces/inkscape"
   width="55.418804mm"
   height="16.536804mm"
   viewBox="0 0 55.418804 16.536804"
   version="1.1"
   id="svg994"
   inkscape:version="1.0.2 (e86c870879, 2021-01-15)"
   sodipodi:docname="epong_logo.svg">
  <defs
     id="defs988" />
  <sodipodi:namedview
     id="base"
     pagecolor="#ffffff"
     bordercolor="#666666"
     borderopacity="1.0"
     inkscape:pageopacity="0.0"
     inkscape:pageshadow="2"
     inkscape:zoom="0.35"
     inkscape:cx="285.02942"
     inkscape:cy="950.42599"
     inkscape:document-units="mm"
     inkscape:current-layer="layer1"
     inkscape:document-rotation="0"
     showgrid="false"
     fit-margin-top="0"
     fit-margin-left="0"
     fit-margin-right="0"
     fit-margin-bottom="0"
     inkscape:window-width="1716"
     inkscape:window-height="1024"
     inkscape:window-x="101"
     inkscape:window-y="25"
     inkscape:window-maximized="0" />
  <metadata
     id="metadata991">
    <rdf:RDF>
      <cc:Work
         rdf:about="">
        <dc:format>image/svg+xml</dc:format>
        <dc:type
           rdf:resource="http://purl.org/dc/dcmitype/StillImage" />
        <dc:title></dc:title>
      </cc:Work>
    </rdf:RDF>
  </metadata>
  <g
     inkscape:label="Слой 1"
     inkscape:groupmode="layer"
     id="layer1"
     transform="translate(-5.2456747,-5.7058037)">
    <path
       d="m 28.861857,6.2264956 c -0.987778,0.458611 -2.046112,0.493889 -5.468056,0.3175 C 21.065467,6.4028846 16.056022,6.2617736 12.2813,6.2617736 l -6.8791673,-0.07056 -0.105833,7.3025014 c -0.105834,9.489723 -0.670278,8.784167 7.0908333,8.678334 l 5.715001,-0.105834 0.105833,-1.164166 0.105833,-1.128889 h 3.845278 c 3.598334,0 3.880556,0.03528 4.480278,0.811389 0.9525,1.234722 1.975556,1.658055 3.880556,1.658055 1.693334,0 3.845278,-0.9525 4.445001,-1.975555 0.423333,-0.740834 1.305278,-0.599723 1.305278,0.176389 0,1.5875 0.3175,1.799166 2.681111,1.799166 h 2.257778 v -1.234718 c 0,-1.128889 0.07055,-1.234722 1.023055,-1.234722 0.811389,0 1.199445,0.282222 1.799167,1.234722 0.705556,1.128889 0.881945,1.234722 2.469445,1.234722 1.940278,0 2.963333,-0.705555 2.645833,-1.799166 -0.176389,-0.529167 -0.03528,-0.670278 0.635,-0.670278 0.493889,0 0.9525,0.246944 1.058334,0.529166 0.3175,0.776112 2.892778,1.940278 4.339167,1.940278 2.716389,0 5.291667,-2.504722 5.432778,-5.291667 0.141111,-2.645833 0.03528,-3.104444 -0.776111,-3.245555 -1.093612,-0.141111 -1.27,-1.27 -0.211667,-1.411112 0.599722,-0.07055 0.846667,-0.388055 0.917222,-1.128889 0.176389,-1.5169444 -0.599722,-2.9986114 -2.151944,-4.1275004 -1.5875,-1.164167 -3.280834,-1.305278 -5.856112,-0.529166 -1.27,0.352777 -1.869722,0.352777 -2.998611,0.03528 -2.751667,-0.811389 -4.445,-0.9525 -4.656667,-0.352778 -0.246945,0.599723 -2.786945,0.740834 -3.139722,0.176389 -0.105834,-0.211666 -1.305278,-0.352777 -2.645834,-0.352777 -1.340556,0 -2.54,0.141111 -2.645834,0.352777 -0.3175,0.529167 -2.363611,0.423334 -3.81,-0.176389 -1.5875,-0.670277 -2.2225,-0.635 -3.774722,0.03528 z m -16.227779,2.010834 v 1.481666 l -1.5875,-0.105833 -1.5875005,-0.141111 v 1.4463894 c 0,0.811389 -0.035278,1.552222 -0.070556,1.693333 -0.070555,0.141112 0.5644445,0.211667 1.4111115,0.176389 L 12.2813,12.647052 v 1.446389 1.446389 H 10.6938 9.1062997 v 1.763889 1.763889 h 1.7286113 c 1.658056,0 1.728611,0.03528 1.869722,1.058334 0.105834,0.599722 0.03528,1.164166 -0.141111,1.27 -0.529167,0.3175 -6.1030563,0 -6.3500003,-0.388056 -0.141111,-0.176389 -0.282222,-3.4925 -0.282222,-7.337778 V 6.7203846 h 3.3513889 3.3513894 z m 7.020278,-0.987778 c 2.892778,0.740833 4.621389,2.7516674 4.621389,5.2916674 0,2.504722 -2.010833,4.868334 -4.833056,5.679722 -1.799167,0.529167 -1.869722,0.599723 -1.869722,1.763889 0,0.881945 -0.176389,1.199445 -0.599722,1.270001 -0.352778,0 -1.058334,0.07056 -1.552223,0.105833 L 14.5038,21.431214 14.256856,17.727048 C 14.151022,15.680936 14.045189,12.364825 14.045189,10.353992 V 6.7203796 h 1.869722 c 0.987778,0 2.681112,0.246945 3.739445,0.529167 z m 13.934723,0.529167 c 1.516945,1.340555 2.328334,3.6688894 2.328334,6.7027784 0,3.986389 -1.869723,6.596945 -4.974167,6.949722 -1.940278,0.211667 -3.704167,-0.881944 -4.727223,-2.892777 -0.881944,-1.799167 -0.917222,-6.385279 -0.07056,-8.325557 1.516945,-3.4219444 5.009446,-4.5508334 7.443612,-2.4341664 z m 9.136945,2.6811114 c 1.658056,3.386667 1.869723,3.633611 2.046112,2.716389 0.141111,-0.529167 0.246944,-1.728611 0.282222,-2.610556 0,-0.9172224 0.141111,-2.1519444 0.246944,-2.7869444 0.246945,-1.128889 0.246945,-1.128889 1.869723,-0.881945 0.881944,0.141111 1.693333,0.282222 1.834444,0.352778 0.105834,0.07055 -0.03528,1.446389 -0.246944,3.0691674 -0.246945,1.622778 -0.458611,4.691944 -0.458611,6.843889 l -0.03528,3.915834 -1.481667,0.246944 c -1.023056,0.176389 -1.552222,0.105833 -1.763889,-0.211667 -0.141111,-0.246944 -1.199444,-1.975555 -2.328333,-3.81 l -2.010834,-3.351389 -0.105833,3.774723 -0.105834,3.81 h -1.552222 -1.5875 V 14.128719 6.7203846 H 39.092411 40.8563 Z M 57.648525,7.3906626 c 1.058334,0.635 2.257778,2.6105564 2.257778,3.7041674 0,0.423333 -0.352778,0.564444 -1.199444,0.564444 -0.670278,0 -1.481667,0.105834 -1.799167,0.211667 -0.388056,0.176389 -0.635,0 -0.776111,-0.529167 -0.282222,-1.093611 -1.693334,-0.987777 -2.469445,0.211667 -0.388055,0.599722 -0.599722,1.622778 -0.635,2.963334 0,1.763889 0.141111,2.187222 0.917222,2.998611 0.811389,0.776111 1.058334,0.846667 1.693334,0.529167 0.9525,-0.529167 0.9525,-1.093612 0.03528,-1.093612 -0.564445,0 -0.705556,-0.246944 -0.705556,-1.234722 v -1.234722 h 2.504722 2.504723 l -0.141111,1.940278 c -0.211667,2.328333 -1.023056,3.598333 -2.892778,4.550833 -2.398889,1.199445 -5.25639,-0.141111 -6.596945,-3.139722 -0.811389,-1.763889 -0.881945,-5.362223 -0.141111,-7.161389 1.446389,-3.3866674 4.833056,-4.8683344 7.443611,-3.2808344 z M 10.870189,11.306497 c 0,0.388055 -0.141111,0.705555 -0.352778,0.705555 -0.176389,0 -0.352778,-0.3175 -0.352778,-0.705555 0,-0.388056 0.176389,-0.705556 0.352778,-0.705556 0.211667,0 0.352778,0.3175 0.352778,0.705556 z m 0,5.785556 c 0,0.493888 -0.176389,0.987777 -0.352778,1.093611 C 10.0588,18.467886 9.6707442,17.480108 9.9529664,16.774552 10.270466,15.927886 10.870189,16.17483 10.870189,17.092053 Z"
       id="path76"
       style="opacity:0.865342;fill:#000d75;fill-opacity:1;stroke-width:0.0352778" />
    <path
       d="m 9.4590775,7.4259406 c 0,0.176389 0.3880556,0.352778 0.8819445,0.352778 0.493889,0 0.881945,-0.176389 0.881945,-0.352778 0,-0.211667 -0.388056,-0.352778 -0.881945,-0.352778 -0.4938889,0 -0.8819445,0.141111 -0.8819445,0.352778 z"
       id="path78"
       style="fill:#000d75;fill-opacity:1;stroke-width:0.0352778" />
    <path
       d="m 18.278523,8.0962186 c 0,0.176389 0.529166,0.388055 1.164166,0.458611 0.599723,0.105833 1.411111,0.282222 1.763889,0.458611 0.9525,0.423333 0.705556,-0.388056 -0.282222,-0.811389 -1.093611,-0.493889 -2.645833,-0.564445 -2.645833,-0.105833 z"
       id="path80"
       style="fill:#000d75;fill-opacity:1;stroke-width:0.0352778" />
    <path
       d="m 17.572967,13.070386 c 0,2.822222 0.3175,3.033889 2.081389,1.552222 1.869722,-1.552222 1.164167,-4.021667 -1.128889,-4.021667 -0.9525,0 -0.9525,0.03528 -0.9525,2.469445 z"
       id="path82"
       style="fill:#000d75;fill-opacity:1;stroke-width:0.0352778" />
    <path
       d="m 30.131857,7.3906626 c -0.176389,0.246944 0.141111,0.388056 0.811389,0.388056 0.564444,0 1.27,0.246944 1.5875,0.529166 0.282222,0.282223 0.705556,0.529167 0.987778,0.529167 0.282222,0 0.176389,-0.246944 -0.246945,-0.705556 -0.846666,-0.811389 -2.822222,-1.305277 -3.139722,-0.740833 z"
       id="path84"
       style="fill:#000d75;fill-opacity:1;stroke-width:0.0352778" />
    <path
       d="m 29.849635,10.318719 c -1.270001,0.9525 -1.799167,4.550833 -0.917223,6.455833 0.564445,1.234723 1.905,1.516945 2.857501,0.599723 1.023055,-1.058334 1.234722,-4.374445 0.352777,-6.067778 -0.705555,-1.3758344 -1.411111,-1.6580564 -2.293055,-0.987778 z"
       id="path86"
       style="fill:#000d75;fill-opacity:1;stroke-width:0.0352778" />
    <path
       d="m 47.770747,7.9903846 c -0.352778,0.881945 -0.246945,2.6105564 0.141111,2.6105564 0.211667,0 0.352778,-0.7055564 0.352778,-1.5875004 0,-1.658056 -0.141111,-1.940278 -0.493889,-1.023056 z"
       id="path88"
       style="fill:#000d75;fill-opacity:1;stroke-width:0.0352778" />
    <path
       d="m 55.320192,7.5670516 c 0,0.3175 2.2225,1.27 2.434167,1.058333 0.3175,-0.282222 -1.058334,-1.199444 -1.799167,-1.199444 -0.352778,0 -0.635,0.07055 -0.635,0.141111 z"
       id="path90"
       style="fill:#000d75;fill-opacity:1;stroke-width:0.0352778" />
  </g>
</svg>
