<svg xmlns="http://www.w3.org/2000/svg" xmlns:xlink="http://www.w3.org/1999/xlink" width="772.835" height="772.835"><defs><linearGradient xlink:href="#a" id="c" x1="181.827" x2="181.827" y1="911.951" y2="286.889" gradientTransform="matrix(.51739 0 0 .61547 186.501 -136.715)" gradientUnits="userSpaceOnUse"/><linearGradient xlink:href="#a" id="e" x1="181.827" x2="181.827" y1="911.951" y2="286.889" gradientTransform="matrix(.51739 0 0 -.61547 186.501 985.82)" gradientUnits="userSpaceOnUse"/><linearGradient xlink:href="#a" id="f" x1="181.827" x2="181.827" y1="911.951" y2="286.889" gradientTransform="matrix(0 -.51739 -.61547 0 841.838 518.62)" gradientUnits="userSpaceOnUse"/><linearGradient xlink:href="#a" id="g" x1="181.827" x2="181.827" y1="911.951" y2="286.889" gradientTransform="matrix(0 -.51739 .61547 0 -280.698 518.62)" gradientUnits="userSpaceOnUse"/><linearGradient id="a"><stop offset="0" style="stop-color:#fff;stop-opacity:1"/><stop offset=".2" style="stop-color:#fff;stop-opacity:1"/><stop offset="1" style="stop-color:#fff;stop-opacity:.11764706"/></linearGradient><linearGradient id="b"><stop offset="0" style="stop-color:#fff;stop-opacity:1"/><stop offset=".31" style="stop-color:#fff;stop-opacity:1"/><stop offset="1" style="stop-color:#fff;stop-opacity:0"/></linearGradient><radialGradient xlink:href="#b" id="d" cx="362.143" cy="475.934" r="105.349" fx="362.143" fy="475.934" gradientUnits="userSpaceOnUse"/></defs><g style="display:inline"><path d="M280.569 38.135c-18.01 30.796-22.47 31.422-22.992 58.777 0 0 1.045 160.399 0 327.64h45.999c-1.045-167.241 0-327.64 0-327.64-.523-27.355-4.998-27.981-23.007-58.777z" style="fill:url(#c);fill-opacity:1;stroke:none" transform="translate(105.847 -38.135)"/><path d="M362.143 581.283c-15.865 0-8.15-74.763-19.368-85.981-11.218-11.218-85.981-3.504-85.981-19.368 0-15.865 74.763-8.15 85.98-19.369 11.218-11.217 3.504-85.98 19.369-85.98 15.864 0 8.15 74.763 19.368 85.98 11.218 11.218 85.981 3.504 85.981 19.369 0 15.864-74.763 8.15-85.98 19.368-11.219 11.218-3.505 85.98-19.37 85.98z" style="fill:url(#d);fill-opacity:1;stroke:none" transform="matrix(1.80684 0 0 1.80684 -267.917 -473.17)"/><path d="M280.569 810.97c-18.01-30.796-22.47-31.422-22.992-58.777 0 0 1.045-160.4 0-327.64h45.999c-1.045 167.24 0 327.64 0 327.64-.523 27.355-4.998 27.981-23.007 58.777z" style="fill:url(#e);fill-opacity:1;stroke:none" transform="translate(105.847 -38.135)"/><path d="M666.987 424.554c-30.795 18.01-31.421 22.468-58.777 22.991 0 0-160.399-1.045-327.64 0V401.546c167.241 1.046 327.64 0 327.64 0 27.356.523 27.982 4.998 58.777 23.008z" style="fill:url(#f);fill-opacity:1;stroke:none" transform="translate(105.847 -38.135)"/><path d="M-105.847 424.554c30.795 18.01 31.421 22.468 58.777 22.991 0 0 160.398-1.045 327.64 0V401.546c-167.242 1.046-327.64 0-327.64 0-27.356.523-27.982 4.998-58.777 23.008z" style="fill:url(#g);fill-opacity:1;stroke:none" transform="translate(105.847 -38.135)"/></g></svg>